PathFileType	4	(X/Y/Z)	/home/alexbeat/data/kuopio-gait-dataset/01/mocap/calib_static_markers.trc
DataRate	CameraRate	NumFrames	NumMarkers	Units	OrigDataRate	OrigDataStartFrame	OrigNumFrames
100.000000	100.000000	4	70	mm	100.000000	26	211
Frame#	Time	Pelvis1			Pelvis2			Pelvis3			Pelvis4			Torso1			Torso2			Torso3			Torso4			RFemur1			RFemur2			RFemur3			RFemur4			LFemur1			LFemur2			LFemur3			LFemur4			RTibia1			RTibia2			RTibia3			RTibia4			LTibia1			LTibia2			LTibia3			LTibia4			LFoot1			LFoot2			LFoot3			RFoot1			RFoot2			RFoot3			*30			*31			*32			*33			*34			*35			*36			*37			*38			Pelvis_RFemur_score			Pelvis_LFemur_score			RFemur_RTibia_score			RFemur_RTibia_sara			LFemur_LTibia_score			LFemur_LTibia_sara			RKnee			LKnee			RTibia_RFoot_score			LTibia_LFoot_score			USERMO0			USERMO1			USERMO2			USERMO3			USERMO4			USERMO5			USERMO6			USERMO7			USERMO8			USERMO9			USERMO10			USERMO11			USERMO12			USERMO13			USERMO14			USERMO15			USERMO16			USERMO17			USERMO18			USERMO19			USERMO20			
		X1	Y1	Z1	X2	Y2	Z2	X3	Y3	Z3	X4	Y4	Z4	X5	Y5	Z5	X6	Y6	Z6	X7	Y7	Z7	X8	Y8	Z8	X9	Y9	Z9	X10	Y10	Z10	X11	Y11	Z11	X12	Y12	Z12	X13	Y13	Z13	X14	Y14	Z14	X15	Y15	Z15	X16	Y16	Z16	X17	Y17	Z17	X18	Y18	Z18	X19	Y19	Z19	X20	Y20	Z20	X21	Y21	Z21	X22	Y22	Z22	X23	Y23	Z23	X24	Y24	Z24	X25	Y25	Z25	X26	Y26	Z26	X27	Y27	Z27	X28	Y28	Z28	X29	Y29	Z29	X30	Y30	Z30	X31	Y31	Z31	X32	Y32	Z32	X33	Y33	Z33	X34	Y34	Z34	X35	Y35	Z35	X36	Y36	Z36	X37	Y37	Z37	X38	Y38	Z38	X39	Y39	Z39	X40	Y40	Z40	X41	Y41	Z41	X42	Y42	Z42	X43	Y43	Z43	X44	Y44	Z44	X45	Y45	Z45	X46	Y46	Z46	X47	Y47	Z47	X48	Y48	Z48	X49	Y49	Z49	X50	Y50	Z50	X51	Y51	Z51	X52	Y52	Z52	X53	Y53	Z53	X54	Y54	Z54	X55	Y55	Z55	X56	Y56	Z56	X57	Y57	Z57	X58	Y58	Z58	X59	Y59	Z59	X60	Y60	Z60	X61	Y61	Z61	X62	Y62	Z62	X63	Y63	Z63	X64	Y64	Z64	X65	Y65	Z65	X66	Y66	Z66	X67	Y67	Z67	X68	Y68	Z68	X69	Y69	Z69	X70	Y70	Z70	

27	0.26	306.9345703125	1027.461547851562	343.3959045410157	226.2042388916016	1030.247314453125	345.9667968750001	228.17724609375	916.1113891601562	314.2454528808594	297.9361267089844	916.7345581054688	313.1468811035157	262.465576171875	1422.303955078125	500.5295410156251	91.63678741455078	1440.0380859375	445.8213195800782	435.9734191894531	1465.041870117188	439.7662353515626	254.1601104736328	1491.22705078125	367.9277954101563	91.37532806396484	647.4207153320312	397.1585998535157	101.6130142211914	545.202880859375	393.3856201171876	89.94598388671875	592.397216796875	421.7300415039062	85.28168487548828	591.652587890625	458.8892822265626	434.539306640625	668.8558349609375	420.9230346679689	433.8189392089844	632.3590698242188	482.2153625488282	423.5861511230469	563.2009887695312	421.8557128906251	434.6538391113281	634.1834106445312	440.2212219238282	93.21958923339844	363.6370849609375	376.8006896972656	97.28045654296875	419.2139892578125	395.8578491210938	91.5911865234375	317.7099609375	391.7353820800781	109.7646713256836	366.4544677734375	338.4139709472656	426.583984375	372.5104675292969	363.0438842773438	432.2691650390625	350.3924865722656	404.7723999023438	424.09716796875	285.2744750976562	412.5181884765625	424.8714904785156	394.6829833984375	429.7084045410156	335.2948608398438	28.1402893066406	320.40087890625	377.7478637695312	23.28438949584957	555.287841796875	421.9374084472656	23.1921520233154	505.9526062011719	179.6072692871094	26.44961738586424	331.4713439941406	118.1872787475586	22.275032043457	561.9540405273438	76.24893951416016	21.00589942932126	505.9526672363281	1498.1318359375	615.0483398437501	-1841.693237304688	1584.279541015625	704.5392456054689	-1909.343139648438	nan	nan	nan	1628.128173828125	658.2395019531251	-1821.193359375	nan	nan	nan	1627.721557617188	662.8720703125001	-1802.710693359375	nan	nan	nan	nan	nan	nan	nan	nan	nan	140.1148376464844	904.1926879882812	451.9570312500001	375.6727905273438	892.3434448242188	456.5423278808594	145.5458221435547	461.2334289550781	416.6983337402344	244.2789611816406	466.7473754882812	431.5765991210939	364.5029296875	458.51025390625	432.4449462890625	264.6246948242188	461.4283447265625	436.4221496582031	145.5460052490234	461.2330017089844	416.697998046875	364.5029907226562	458.510009765625	432.4450073242188	221.8561553955078	8.387307167053201	357.8287963867188	373.1638793945312	18.59410858154295	337.4943542480469	-0.8922795057296753	-0.7362740039825438	-1.481509685516357	0.4307172298431396	0.6214697957038879	0.4416677951812745	0.1000000014901161	0.1000000014901161	-0.1000000014901161	-0.0004202415875624865	-1.386010527610779	-0.02917396463453778	0.3783267438411713	0.02487227693200108	0.460547149181366	0.1000000014901161	0.1000000014901161	-0.1000000014901161	-1.075059413909912	-0.6350148916244506	-1.39989709854126	0.4276776313781738	0.3360501825809479	0.3934445083141327	0.1000000014901161	0.1000000014901161	-0.1000000014901161	-0.07354887574911118	-1.904267430305481	-2.506154537200928	0.2537350058555603	0.991366446018219	0.3345390856266022	0.1000000014901161	0.1000000014901161	-0.1000000014901161	2.462693691253662	-2.237913608551025	0.2060726732015609	0.09439439326524734	0.5949917435646057	0.4041273891925812	0.1000000014901161	0.1000000014901161	-0.1000000014901161	-1.882230281829834	-0.02863052673637852	-2.469523429870605	0.1246811673045158	0.02324351854622361	0.4664593636989594	0.1000000014901161	0.1000000014901161	-0.1000000014901161	2.46406626701355	2.315623044967651	0.3366211652755738	0.09405706822872162	0.3668659031391144	0.3880691528320312	0.1000000014901161	0.1000000014901161	-0.1000000014901161	
28	0.27	306.9596862792969	1027.450439453125	343.4003601074219	226.2020721435547	1030.243896484375	345.9762573242189	228.1921844482422	916.0947875976562	314.2633056640626	297.9379577636719	916.70556640625	313.1806640625001	262.4536743164062	1422.267700195312	500.497528076172	91.62340545654297	1440.00537109375	445.8399047851563	435.9497985839844	1465.020629882812	439.746063232422	254.1349792480469	1491.214965820312	367.9471435546876	91.37288665771484	647.4058227539062	397.1587524414062	101.6196060180664	545.1792602539062	393.3987731933594	89.92220306396484	592.4046020507812	421.7254333496094	85.29576873779297	591.632080078125	458.9028930664062	434.5382690429688	668.8419189453125	420.9183349609376	433.8147888183594	632.3670043945312	482.2230529785157	423.5512390136719	563.1988525390625	421.8453063964844	434.6544799804688	634.19677734375	440.2232971191407	93.19589233398438	363.6348571777344	376.80712890625	97.27609252929688	419.1988220214844	395.8509521484375	91.70450592041016	317.6680603027344	391.666259765625	109.7484741210938	366.4326477050781	338.42919921875	426.59814453125	372.5003051757812	363.0593566894531	432.2936096191406	350.3939208984375	404.7542724609375	424.0827026367188	285.2427978515625	412.4947814941406	424.8640441894531	394.6598510742188	429.6838684082031	335.2911682128906	28.13039970397947	320.3878479003906	377.750244140625	23.25874710083005	555.2903442382812	421.9419555664062	23.17446899414059	505.9408264160156	179.5934906005859	26.44690513610838	331.4630432128906	118.1954650878906	22.25613594055173	561.9412841796875	76.24581146240234	21.00727844238278	505.9502868652344	1498.182250976562	615.0838623046876	-1841.6767578125	1584.303833007812	704.5167236328126	-1909.3408203125	nan	nan	nan	1628.115478515625	658.2463989257814	-1821.225463867188	nan	nan	nan	1627.231811523438	662.8395385742189	-1802.652954101562	nan	nan	nan	nan	nan	nan	nan	nan	nan	140.1018371582031	904.1986694335938	451.9501342773439	375.7103881835938	892.3547973632812	456.5625610351562	145.5272369384766	461.2372131347656	416.6934509277344	244.2652587890625	466.803955078125	431.5195922851562	364.4721069335938	458.5146179199219	432.43896484375	264.5940246582031	461.4535827636719	436.4042663574219	145.5269927978516	461.2369995117188	416.6929931640625	364.4719848632812	458.5150146484375	432.4389953613281	222.0373840332031	8.435882568359354	357.6868896484375	373.1602783203125	18.58922958374021	337.4518127441406	-0.8925137519836426	-0.7361044287681578	-1.481751799583435	0.4307063519954681	0.6214714646339417	0.4416665732860566	0.1000000014901161	0.1000000014901161	-0.1000000014901161	-0.0002932533679995686	-1.385985374450684	-0.0291586499661208	0.3783278167247772	0.02485453896224496	0.460539698600769	0.1000000014901161	0.1000000014901161	-0.1000000014901161	-1.074777483940125	-0.6351011991500853	-1.400213956832886	0.4276833832263947	0.3360355496406555	0.3934299945831299	0.1000000014901161	0.1000000014901161	-0.1000000014901161	-0.07351797819137573	-1.904571890830994	-2.506058931350708	0.253745824098587	0.9913532137870789	0.334550976753235	0.1000000014901161	0.1000000014901161	-0.1000000014901161	2.462672472000122	-2.237699270248413	0.2059991210699079	0.09439108520746231	0.5949775576591492	0.4041325747966766	0.1000000014901161	0.1000000014901161	-0.1000000014901161	-1.882420659065247	-0.0281709916889666	-2.469561100006104	0.124678261578083	0.02323677390813825	0.4664515554904938	0.1000000014901161	0.1000000014901161	-0.1000000014901161	2.463795900344849	2.317530393600464	0.3358153700828554	0.09408572316169739	0.3668365776538849	0.3880592584609985	0.1000000014901161	0.1000000014901161	-0.1000000014901161	
29	0.28	306.9439392089844	1027.4697265625	343.4184570312501	226.2036895751953	1030.258178710938	345.9974975585939	228.1863861083984	916.1123046875	314.2809143066407	297.9274291992188	916.7461547851562	313.1667785644532	262.4214477539062	1422.237548828125	500.5018005371095	91.6053466796875	1440.014038085938	445.8476562500001	435.9325256347656	1465.011962890625	439.7438964843751	254.1067352294922	1491.227905273438	367.9591674804689	91.37039184570312	647.4193115234375	397.1776123046876	101.5967025756836	545.2108154296875	393.4055480957032	89.89878082275391	592.4412231445312	421.7218627929689	85.31744384765625	591.6366577148438	458.9057617187501	434.5452880859375	668.8626708984375	420.9509582519532	433.7861633300781	632.3341674804688	482.2496643066407	423.5501403808594	563.1998291015625	421.8774108886719	434.6562194824219	634.20068359375	440.2497253417969	93.19730377197266	363.6430969238281	376.7984619140625	97.27406311035156	419.2199096679688	395.8513793945312	91.643798828125	317.696533203125	391.688232421875	109.7561492919922	366.4613952636719	338.4189453125	426.5846252441406	372.5058898925781	363.0703125	432.2754821777344	350.4034423828125	404.752197265625	424.0879821777344	285.2572326660156	412.5075073242188	424.8545227050781	394.6590270996094	429.6757202148438	335.2872314453125	28.14803314208982	320.3933410644531	377.7578430175781	23.28167724609371	555.289306640625	421.9432067871094	23.19684410095212	505.9519348144531	179.6196441650391	26.44981002807615	331.4894714355469	118.1936950683594	22.26657104492184	561.9383544921875	76.24802398681641	21.02429199218747	505.9667358398438	1498.212036132812	615.2500610351564	-1841.68408203125	1584.309204101562	704.5307006835939	-1909.334106445312	-3557.49609375	994.6000366210938	673.3722534179689	1628.125732421875	658.2483520507814	-1821.193969726562	-3553.081787109375	971.4937744140625	669.4194946289064	nan	nan	nan	nan	nan	nan	nan	nan	nan	nan	nan	nan	140.1448364257812	904.1975708007812	451.9807128906251	375.7286987304688	892.3597412109375	456.5704956054689	145.5203094482422	461.2436218261719	416.6837463378906	244.2594451904297	466.77685546875	431.5150146484376	364.4547119140625	458.5169677734375	432.4247131347656	264.5757751464844	461.4526062011719	436.3718566894531	145.5200042724609	461.2439880371094	416.6839904785156	364.4549865722656	458.5169982910156	432.4249877929688	221.9517822265625	8.411326408386209	357.7505493164062	373.1766662597656	18.59488868713377	337.4750061035156	-0.8921019434928894	-0.7362906336784362	-1.482112526893616	0.4307006895542145	0.6214696764945984	0.4416950643062593	0.1000000014901161	0.1000000014901161	-0.1000000014901161	-0.0003016052069142461	-1.385954022407532	-0.02913375385105618	0.3783294558525085	0.02487551979720589	0.4605448842048645	0.1000000014901161	0.1000000014901161	-0.1000000014901161	-1.07485294342041	-0.6351670622825621	-1.399997711181641	0.4276756942272186	0.3360419571399689	0.3934346735477448	0.1000000014901161	0.1000000014901161	-0.1000000014901161	-0.07372766733169556	-1.904215455055237	-2.506046772003174	0.2537377774715424	0.991374135017395	0.3345677554607391	0.1000000014901161	0.1000000014901161	-0.1000000014901161	2.462344408035278	-2.23783016204834	0.2052762210369109	0.09437822550535202	0.5950008630752563	0.404137909412384	0.1000000014901161	0.1000000014901161	-0.1000000014901161	-1.882338881492615	-0.02802145853638634	-2.469772338867188	0.1246871277689934	0.02324689179658887	0.4664648771286011	0.1000000014901161	0.1000000014901161	-0.1000000014901161	2.463900566101074	2.316596508026123	0.3364404439926149	0.09406553208827972	0.366861492395401	0.3880579471588135	0.1000000014901161	0.1000000014901161	-0.1000000014901161	
30	0.29	306.9244689941406	1027.47607421875	343.4524841308594	226.2023620605469	1030.260986328125	346.0212707519532	228.1614837646484	916.1248168945312	314.2818603515626	297.9126586914062	916.7572631835938	313.1766967773439	262.4310607910156	1422.215087890625	500.4966735839845	91.60457611083984	1439.994018554688	445.873016357422	435.9232177734375	1464.998657226562	439.7434997558595	254.0812072753906	1491.22412109375	367.9868164062501	91.33278656005859	647.4277954101562	397.1972351074219	101.5663528442383	545.2042846679688	393.4183654785157	89.91718292236328	592.4254150390625	421.7626342773439	85.29488372802734	591.6282958984375	458.9344177246094	434.5386352539062	668.8649291992188	420.9830627441407	433.8020324707031	632.3593139648438	482.2859802246094	423.54345703125	563.1996459960938	421.8777160644532	434.6497802734375	634.1992797851562	440.2876892089844	93.21644592285156	363.6223449707031	376.8089599609375	97.26647186279297	419.2178955078125	395.8628845214844	91.59092712402344	317.7120971679688	391.7305603027344	109.7350692749023	366.4634399414062	338.4259948730469	426.5857238769531	372.5088806152344	363.0543518066406	432.3017272949219	350.4098815917969	404.7573547363281	424.0903930664062	285.2519836425781	412.5279541015625	424.8480834960938	394.6596069335938	429.6777648925781	335.2835388183594	28.14819526672361	320.3996887207031	377.7496643066406	23.28625488281246	555.284912109375	421.9250183105469	23.19573211669919	505.9452209472656	179.5908508300781	26.45778465270994	331.4956970214844	118.2008666992188	22.26509284973141	561.9419555664062	76.25010681152344	21.01365280151364	505.9693908691406	1498.232666015625	615.1724243164064	-1841.704467773438	1584.292602539062	704.4976806640626	-1909.33447265625	nan	nan	nan	1628.158081054688	658.2274169921876	-1821.11181640625	nan	nan	nan	1627.399536132812	662.8465576171876	-1802.681518554688	nan	nan	nan	nan	nan	nan	nan	nan	nan	140.1103515625	904.1917724609375	451.9918823242189	375.7113952636719	892.3480224609375	456.6186218261719	145.5259704589844	461.2372436523438	416.6856689453125	244.2675628662109	466.7581787109375	431.5051574707032	364.4519958496094	458.5211181640625	432.4259948730469	264.5734252929688	461.4532775878906	436.3847351074219	145.5260009765625	461.2369995117188	416.6860046386719	364.4519958496094	458.52099609375	432.4259948730469	221.8692626953125	8.394879341125467	357.7924499511719	373.1894226074219	18.5869674682617	337.5011291503906	-0.8921821713447571	-0.7359607219696044	-1.481978058815002	0.43069988489151	0.6214760541915894	0.4417215287685394	0.1000000014901161	0.1000000014901161	-0.1000000014901161	-0.0003970539546571672	-1.385968327522278	-0.02918924763798722	0.3783194124698639	0.02487672865390775	0.460543304681778	0.1000000014901161	0.1000000014901161	-0.1000000014901161	-1.074910759925842	-0.6353646516799926	-1.399938702583313	0.4276831150054932	0.3360417187213898	0.3934399783611298	0.1000000014901161	0.1000000014901161	-0.1000000014901161	-0.07367242127656937	-1.904023885726929	-2.506343364715576	0.253723531961441	0.9913820624351501	0.3345876634120942	0.1000000014901161	0.1000000014901161	-0.1000000014901161	2.462346076965332	-2.237673044204712	0.2048408389091491	0.09435636550188065	0.594996452331543	0.4041627645492555	0.1000000014901161	0.1000000014901161	-0.1000000014901161	-1.882400631904602	-0.02822443470358834	-2.469525337219238	0.1246806159615517	0.02324551157653329	0.4664690494537354	0.1000000014901161	0.1000000014901161	-0.1000000014901161	2.464189767837524	2.316003561019897	0.3363217413425448	0.09404948353767395	0.3668640553951263	0.3880756199359894	0.1000000014901161	0.1000000014901161	-0.1000000014901161	
